<svg xmlns="http://www.w3.org/2000/svg" version="1.0" width="640.000000pt" height="1280.000000pt" viewBox="0 0 640.000000 1280.000000" preserveAspectRatio="xMidYMid meet">
<metadata>
Created by potrace 1.15, written by Peter Selinger 2001-2017
</metadata>
<g transform="translate(0.000000,1280.000000) scale(0.100000,-0.100000)" fill="#000000" stroke="none">
<path d="M2950 12648 c-516 -7 -924 -27 -1100 -54 -168 -25 -150 -16 -343 -163 -217 -165 -207 -157 -207 -164 0 -4 94 -149 208 -324 141 -215 315 -503 537 -888 180 -313 330 -572 333 -575 2 -3 1 5 -2 18 -12 36 1 25 14 -13 10 -32 7 -45 -56 -192 -92 -217 -245 -562 -375 -845 -68 -148 -119 -273 -134 -330 -84 -321 -191 -1124 -310 -2318 -86 -867 -123 -1292 -239 -2720 -81 -986 -185 -2423 -177 -2431 3 -4 509 -376 1124 -828 l1117 -822 83 73 c84 74 491 426 1372 1188 270 233 493 426 498 430 7 6 -50 572 -168 1690 -25 234 -66 616 -91 850 -93 879 -161 1509 -265 2445 -138 1248 -276 2348 -324 2578 -26 126 -119 341 -277 642 -95 181 -120 226 -275 497 l-83 147 34 63 c18 35 242 447 496 916 444 819 461 854 455 892 -8 49 -69 144 -102 159 -145 66 -746 93 -1743 79z"/>
</g>
</svg>